#!OML:ASF F:\VICON\USERDATA\INSTALL\Justin_Nancy\Justin_Nancy.ASF
:FULLY-SPECIFIED
:DEGREES
439
root 7.34051 17.6935 15.3365 74.5892 90.1972 73.3655
lowerback 7.3051 -0.620983 -1.93112
upperback -0.111047 -0.890961 1.99543
thorax -4.15325 -0.374377 3.25351
lowerneck -16.8155 -3.48725 -7.9762
upperneck 21.7904 -3.32308 3.42992
head 9.90821 -1.73685 2.0954
rclavicle 2.90723e-015 -3.97569e-015
rhumerus -36.7018 -26.1984 -71.4769
rradius 25.2329
rwrist 13.5987
rhand -14.9471 10.6685
rfingers 7.12502
rthumb 11.2158 -19.0117
lclavicle 2.90723e-015 -3.97569e-015
lhumerus -30.1016 9.54571 83.1821
lradius 29.7586
lwrist -4.80846
lhand -19.4241 24.8619
lfingers 7.12502
lthumb 6.8958 54.7295
rfemur -16.5304 4.96978 20.6073
rtibia 20.2726
rfoot -3.05772 -5.28446
rtoes 39.6465
lfemur -3.55863 -5.25884 -21.361
ltibia 50.2813
lfoot 18.7658 -5.15097
ltoes 2.18062
440
root 7.4962 17.7324 15.3608 82.9698 90.5823 81.9498
lowerback 7.37692 -0.581615 -1.40717
upperback 0.00816401 -0.788846 2.05447
thorax -4.08273 -0.334646 3.00754
lowerneck -16.9456 -3.65123 -8.25763
upperneck 21.7087 -3.53389 3.69974
head 9.92807 -1.82654 2.20588
rclavicle -2.16178e-015 -1.74931e-014
rhumerus -36.1856 -25.3055 -72.1026
rradius 25.3795
rwrist 11.8796
rhand -15.1312 10.6175
rfingers 7.12502
rthumb 11.0382 -19.0723
lclavicle -2.16178e-015 -1.74931e-014
lhumerus -30.0535 9.3536 83.2467
lradius 29.2022
lwrist -5.15803
lhand -18.8721 24.7161
lfingers 7.12502
lthumb 7.42862 54.5657
rfemur -15.4562 5.62923 20.8825
rtibia 20.0428
rfoot -3.13422 -2.57904
rtoes 20.273
lfemur -4.66024 -5.50823 -20.9779
ltibia 52.2786
lfoot 19.841 -5.50239
ltoes 2.89398
441
root 7.65884 17.7576 15.368 95.804 90.7952 95.0772
lowerback 7.43249 -0.512025 -0.85109
upperback 0.168117 -0.64838 2.02075
thorax -3.96275 -0.277558 2.64211
lowerneck -17.0442 -3.81102 -8.46487
upperneck 21.6018 -3.74477 3.90283
head 9.9313 -1.9177 2.2803
rclavicle 3.65267e-015 5.96354e-015
rhumerus -35.7951 -24.5936 -72.6141
rradius 25.6253
rwrist 10.408
rhand -14.4414 10.9765
rfingers 7.12502
rthumb 11.7034 -18.6766
lclavicle 3.65267e-015 5.96354e-015
lhumerus -30.0566 9.9122 83.0691
lradius 28.5848
lwrist -6.30677
lhand -17.7211 23.9665
lfingers 7.12502
lthumb 8.53952 53.7738
rfemur -14.3396 5.91045 21.1329
rtibia 19.7202
rfoot -3.59486 -2.48839
rtoes 22.452
lfemur -5.65213 -5.23894 -20.8356
ltibia 54.2084
lfoot 19.7891 -5.93128
ltoes 1.07353
442
root 7.79254 17.7736 15.4088 88.7828 91.0951 88.0935
lowerback 7.5866 -0.453449 -0.659303
upperback 0.173644 -0.547575 2.10574
thorax -4.04979 -0.228595 2.61373
lowerneck -16.9705 -3.89743 -8.56595
upperneck 21.424 -3.88014 4.04557
head 9.86871 -1.97252 2.32751
rclavicle -1.11816e-014 5.1684e-015
rhumerus -35.5131 -23.8839 -73.0683
rradius 25.9991
rwrist 9.038
rhand -12.0712 11.2536
rfingers 7.12502
rthumb 13.9884 -18.2557
lclavicle -1.11816e-014 5.1684e-015
lhumerus -30.0888 9.53978 83.2018
lradius 28.1162
lwrist -7.01038
lhand -17.6954 24.0788
lfingers 7.12502
lthumb 8.56433 53.8851
rfemur -13.6128 6.20675 21.7128
rtibia 19.4938
rfoot -4.00666 -2.98812
rtoes 22.1185
lfemur -7.06237 -4.624 -20.037
ltibia 56.0605
lfoot 18.881 -6.57321
ltoes -0.623138
443
root 7.93339 17.7878 15.4477 86.7753 91.3562 86.2495
lowerback 7.80534 -0.408956 -0.612215
upperback 0.176888 -0.476305 2.20982
thorax -4.17244 -0.191003 2.6908
lowerneck -16.9651 -3.90839 -8.52421
upperneck 21.5151 -3.91728 4.08862
head 9.90238 -1.98116 2.33174
rclavicle -6.93262e-015 -7.95139e-016
rhumerus -35.2639 -23.5379 -73.384
rradius 26.1786
rwrist 8.29621
rhand -12.2208 11.1992
rfingers 7.12502
rthumb 13.8442 -18.3201
lclavicle -6.93262e-015 -7.95139e-016
lhumerus -30.2489 9.51501 83.2748
lradius 27.6271
lwrist -7.89803
lhand -18.3021 24.4409
lfingers 7.12502
lthumb 7.97873 54.2703
rfemur -12.7303 6.55658 22.256
rtibia 19.2096
rfoot -4.17567 -3.35511
rtoes 20.1443
lfemur -8.24118 -4.238 -19.3769
ltibia 57.844
lfoot 17.5318 -6.42469
ltoes 1.10436
444
root 8.07782 17.8006 15.4848 85.4492 91.6214 85.0321
lowerback 7.88668 -0.379235 -0.598102
upperback 0.189792 -0.425742 2.36219
thorax -4.20641 -0.1633 2.83695
lowerneck -16.8899 -3.9001 -8.45073
upperneck 21.4828 -3.90588 3.98485
head 9.87231 -1.98192 2.28499
rclavicle 4.29872e-015 -1.47101e-014
rhumerus -35.0377 -23.4475 -73.3241
rradius 26.281
rwrist 8.85941
rhand -15.1838 10.9717
rfingers 7.12502
rthumb 10.9875 -18.7208
lclavicle 4.29872e-015 -1.47101e-014
lhumerus -30.4722 10.2445 83.1629
lradius 27.1867
lwrist -8.84988
lhand -18.2174 24.4814
lfingers 7.12502
lthumb 8.06049 54.3076
rfemur -11.923 6.92712 22.7935
rtibia 19.0285
rfoot -4.33534 -3.54457
rtoes 16.7434
lfemur -9.49539 -4.14972 -18.8172
ltibia 59.576
lfoot 15.9329 -5.82106
ltoes 3.80447
445
root 8.22094 17.8056 15.5054 85.8952 91.664 85.5586
lowerback 7.85998 -0.341153 -0.527358
upperback 0.271488 -0.370112 2.34162
thorax -4.10996 -0.138441 2.76789
lowerneck -16.8082 -3.82592 -8.15018
upperneck 21.2044 -3.82768 3.71595
head 9.74027 -1.95217 2.14968
rclavicle -9.34288e-015 6.75868e-015
rhumerus -34.7664 -23.5807 -73.1616
rradius 26.3519
rwrist 10.3437
rhand -15.9897 10.7353
rfingers 7.12502
rthumb 10.2101 -18.997
lclavicle -9.34288e-015 6.75868e-015
lhumerus -30.4505 11.2651 82.8115
lradius 26.6566
lwrist -9.28194
lhand -17.8335 23.9038
lfingers 7.12502
lthumb 8.43106 53.7155
rfemur -11.1929 7.22251 23.0089
rtibia 18.8399
rfoot -5.02984 -4.20211
rtoes 21.3632
lfemur -10.7699 -4.35561 -18.774
ltibia 61.1332
lfoot 14.1999 -4.73127
ltoes 3.22354
446
root 8.35428 17.8113 15.4938 83.6688 91.5721 83.1889
lowerback 7.77402 -0.375934 -0.0930588
upperback 0.221034 -0.388128 2.14832
thorax -4.11725 -0.15822 2.32286
lowerneck -16.6095 -3.82799 -8.14558
upperneck 20.8996 -3.85049 3.7211
head 9.59718 -1.96278 2.14726
rclavicle 8.27441e-015 -1.15295e-014
rhumerus -34.3674 -23.4841 -73.2955
rradius 26.3358
rwrist 11.5019
rhand -15.3309 10.4988
rfingers 7.12502
rthumb 10.8455 -19.2012
lclavicle 8.27441e-015 -1.15295e-014
lhumerus -30.5151 11.7814 82.4951
lradius 26.2588
lwrist -9.37842
lhand -18.2433 24.2304
lfingers 7.12502
lthumb 8.03552 54.0576
rfemur -10.7819 6.9875 22.8837
rtibia 18.577
rfoot -5.26952 -4.03006
rtoes 22.1011
lfemur -12.3837 -4.26403 -19.0186
ltibia 62.4989
lfoot 12.6016 -4.16075
ltoes 0.0641638
447
root 8.49194 17.809 15.512 90.2634 91.5267 89.9797
lowerback 7.9359 -0.222809 -0.119121
upperback 0.259013 -0.184238 2.1535
thorax -4.17686 -0.0559523 2.32139
lowerneck -16.4301 -3.96399 -8.49452
upperneck 20.8703 -4.01049 3.93692
head 9.5777 -2.04149 2.2604
rclavicle -1.31695e-015 -2.78299e-015
rhumerus -34.0181 -23.0922 -73.4073
rradius 26.3819
rwrist 11.8695
rhand -15.1027 10.3801
rfingers 7.12502
rthumb 11.0657 -19.3082
lclavicle -1.31695e-015 -2.78299e-015
lhumerus -30.6413 12.143 82.36
lradius 25.7655
lwrist -9.70864
lhand -18.3838 23.7712
lfingers 7.12502
lthumb 7.89995 53.6036
rfemur -9.9998 6.66239 23.1229
rtibia 18.3295
rfoot -5.19848 -3.56459
rtoes 16.1393
lfemur -13.4386 -3.79945 -18.9838
ltibia 63.6182
lfoot 11.2326 -3.89515
ltoes -0.223088
448
root 8.63418 17.8014 15.5229 100.934 91.6447 100.782
lowerback 7.98707 0.035603 0.0666525
upperback 0.268918 0.174812 2.09893
thorax -4.20925 0.117997 2.11898
lowerneck -16.1944 -4.09672 -8.54571
upperneck 20.833 -4.23982 4.10456
head 9.54154 -2.13436 2.29901
rclavicle 8.44835e-016 -3.18055e-015
rhumerus -33.7986 -22.7884 -73.5566
rradius 26.3446
rwrist 11.314
rhand -14.9848 10.9153
rfingers 7.12502
rthumb 11.1794 -18.7668
lclavicle 8.44835e-016 -3.18055e-015
lhumerus -30.698 12.9317 81.945
lradius 25.1632
lwrist -9.8267
lhand -17.4136 22.5399
lfingers 7.12502
lthumb 8.83622 52.3349
rfemur -9.36469 5.7336 23.5762
rtibia 18.1214
rfoot -5.23203 -2.62587
rtoes 5.30545
lfemur -14.4139 -3.86319 -19.0234
ltibia 64.5622
lfoot 9.92393 -2.93915
ltoes 0.799478
